<mxfile host="app.diagrams.net" modified="2024-03-25T11:03:33.921Z" agent="Mozilla/5.0 (Windows NT 10.0; Win64; x64) AppleWebKit/537.36 (KHTML, like Gecko) Chrome/121.0.0.0 Safari/537.36 Edg/121.0.0.0" etag="O8gjizxLjj4dlTTaWPSQ" version="24.0.5" type="device">
  <diagram id="C4WFuiqOI0WFvw3oNT-S" name="Page-2">
    <mxGraphModel dx="3653" dy="1138" grid="1" gridSize="10" guides="1" tooltips="1" connect="1" arrows="1" fold="1" page="1" pageScale="1" pageWidth="1169" pageHeight="827" math="0" shadow="0">
      <root>
        <mxCell id="0" />
        <mxCell id="1" parent="0" />
        <mxCell id="cypA32HjYYS9YyYGD42s-20" value="Docker Compose" style="rounded=1;whiteSpace=wrap;html=1;verticalAlign=top;fontStyle=1;fontSize=14;" vertex="1" parent="1">
          <mxGeometry x="-669.5" y="40" width="710" height="750" as="geometry" />
        </mxCell>
        <mxCell id="nDJEfwzJZ0UT30trl8e0-6" style="edgeStyle=orthogonalEdgeStyle;rounded=0;orthogonalLoop=1;jettySize=auto;html=1;exitX=0.5;exitY=1;exitDx=0;exitDy=0;entryX=0.5;entryY=0;entryDx=0;entryDy=0;" parent="1" source="nDJEfwzJZ0UT30trl8e0-1" target="X8o6eKV5fm68J-Vxxh91-23" edge="1">
          <mxGeometry relative="1" as="geometry" />
        </mxCell>
        <mxCell id="X8o6eKV5fm68J-Vxxh91-18" value="execute collector function" style="edgeLabel;html=1;align=center;verticalAlign=middle;resizable=0;points=[];" parent="nDJEfwzJZ0UT30trl8e0-6" vertex="1" connectable="0">
          <mxGeometry x="-0.2333" relative="1" as="geometry">
            <mxPoint as="offset" />
          </mxGeometry>
        </mxCell>
        <mxCell id="nDJEfwzJZ0UT30trl8e0-1" value="data collector&lt;br&gt;scheduler" style="whiteSpace=wrap;html=1;aspect=fixed;fillColor=#dae8fc;strokeColor=#6c8ebf;" parent="1" vertex="1">
          <mxGeometry x="-314.5" y="170" width="100" height="100" as="geometry" />
        </mxCell>
        <mxCell id="X8o6eKV5fm68J-Vxxh91-4" style="edgeStyle=orthogonalEdgeStyle;rounded=0;orthogonalLoop=1;jettySize=auto;html=1;exitX=1;exitY=0.5;exitDx=0;exitDy=0;entryX=0;entryY=0.5;entryDx=0;entryDy=0;" parent="1" source="nDJEfwzJZ0UT30trl8e0-4" target="X8o6eKV5fm68J-Vxxh91-3" edge="1">
          <mxGeometry relative="1" as="geometry" />
        </mxCell>
        <mxCell id="X8o6eKV5fm68J-Vxxh91-5" value="ssh 22/tcp&lt;br&gt;Command&lt;br&gt;execution" style="edgeLabel;html=1;align=center;verticalAlign=middle;resizable=0;points=[];" parent="X8o6eKV5fm68J-Vxxh91-4" vertex="1" connectable="0">
          <mxGeometry x="0.0222" y="-1" relative="1" as="geometry">
            <mxPoint as="offset" />
          </mxGeometry>
        </mxCell>
        <mxCell id="nDJEfwzJZ0UT30trl8e0-4" value="collector&lt;br&gt;function" style="rounded=0;whiteSpace=wrap;html=1;fillColor=#d5e8d4;strokeColor=#82b366;" parent="1" vertex="1">
          <mxGeometry x="-323.5" y="370" width="120" height="60" as="geometry" />
        </mxCell>
        <mxCell id="X8o6eKV5fm68J-Vxxh91-1" value="Graphite Web" style="rounded=0;whiteSpace=wrap;html=1;" parent="1" vertex="1">
          <mxGeometry x="-627.5" y="438" width="120" height="120" as="geometry" />
        </mxCell>
        <mxCell id="X8o6eKV5fm68J-Vxxh91-3" value="remote&lt;br&gt;host device" style="rounded=1;whiteSpace=wrap;html=1;fillColor=#f5f5f5;fontColor=#333333;strokeColor=#666666;" parent="1" vertex="1">
          <mxGeometry x="127.5" y="375" width="120" height="60" as="geometry" />
        </mxCell>
        <mxCell id="X8o6eKV5fm68J-Vxxh91-8" value="collector&lt;br&gt;function" style="rounded=0;whiteSpace=wrap;html=1;fillColor=#d5e8d4;strokeColor=#82b366;" parent="1" vertex="1">
          <mxGeometry x="-323.5" y="440" width="120" height="60" as="geometry" />
        </mxCell>
        <mxCell id="X8o6eKV5fm68J-Vxxh91-9" value="collector&lt;br&gt;function" style="rounded=0;whiteSpace=wrap;html=1;fillColor=#d5e8d4;strokeColor=#82b366;" parent="1" vertex="1">
          <mxGeometry x="-323.5" y="510" width="120" height="60" as="geometry" />
        </mxCell>
        <mxCell id="X8o6eKV5fm68J-Vxxh91-10" value="remote&lt;br&gt;host device" style="rounded=1;whiteSpace=wrap;html=1;fillColor=#f5f5f5;fontColor=#333333;strokeColor=#666666;" parent="1" vertex="1">
          <mxGeometry x="127.5" y="444" width="120" height="60" as="geometry" />
        </mxCell>
        <mxCell id="X8o6eKV5fm68J-Vxxh91-11" style="edgeStyle=orthogonalEdgeStyle;rounded=0;orthogonalLoop=1;jettySize=auto;html=1;exitX=1.028;exitY=0.555;exitDx=0;exitDy=0;entryX=0;entryY=0.5;entryDx=0;entryDy=0;exitPerimeter=0;" parent="1" source="X8o6eKV5fm68J-Vxxh91-8" target="X8o6eKV5fm68J-Vxxh91-10" edge="1">
          <mxGeometry relative="1" as="geometry">
            <mxPoint x="-219.5" y="409.5" as="sourcePoint" />
            <mxPoint x="-99.5" y="409.5" as="targetPoint" />
          </mxGeometry>
        </mxCell>
        <mxCell id="X8o6eKV5fm68J-Vxxh91-12" value="windows ??&lt;br&gt;Command&lt;br&gt;execution" style="edgeLabel;html=1;align=center;verticalAlign=middle;resizable=0;points=[];" parent="X8o6eKV5fm68J-Vxxh91-11" vertex="1" connectable="0">
          <mxGeometry x="0.0222" y="-1" relative="1" as="geometry">
            <mxPoint as="offset" />
          </mxGeometry>
        </mxCell>
        <mxCell id="X8o6eKV5fm68J-Vxxh91-15" style="edgeStyle=orthogonalEdgeStyle;rounded=0;orthogonalLoop=1;jettySize=auto;html=1;entryX=0;entryY=0.5;entryDx=0;entryDy=0;exitX=1;exitY=0.5;exitDx=0;exitDy=0;" parent="1" source="X8o6eKV5fm68J-Vxxh91-9" target="X8o6eKV5fm68J-Vxxh91-17" edge="1">
          <mxGeometry relative="1" as="geometry">
            <mxPoint x="-199.5" y="480" as="sourcePoint" />
          </mxGeometry>
        </mxCell>
        <mxCell id="X8o6eKV5fm68J-Vxxh91-16" value="SNMP 161/udp&lt;br&gt;Command&lt;br&gt;execution" style="edgeLabel;html=1;align=center;verticalAlign=middle;resizable=0;points=[];" parent="X8o6eKV5fm68J-Vxxh91-15" vertex="1" connectable="0">
          <mxGeometry x="0.0222" y="-1" relative="1" as="geometry">
            <mxPoint as="offset" />
          </mxGeometry>
        </mxCell>
        <mxCell id="X8o6eKV5fm68J-Vxxh91-17" value="remote&lt;br&gt;host device" style="rounded=1;whiteSpace=wrap;html=1;fillColor=#f5f5f5;fontColor=#333333;strokeColor=#666666;" parent="1" vertex="1">
          <mxGeometry x="127.5" y="515" width="120" height="60" as="geometry" />
        </mxCell>
        <mxCell id="X8o6eKV5fm68J-Vxxh91-19" value="collector&lt;br&gt;function" style="rounded=0;whiteSpace=wrap;html=1;fillColor=#d5e8d4;strokeColor=#82b366;" parent="1" vertex="1">
          <mxGeometry x="-323.5" y="580" width="120" height="60" as="geometry" />
        </mxCell>
        <mxCell id="X8o6eKV5fm68J-Vxxh91-20" style="edgeStyle=orthogonalEdgeStyle;rounded=0;orthogonalLoop=1;jettySize=auto;html=1;entryX=0;entryY=0.5;entryDx=0;entryDy=0;exitX=1;exitY=0.5;exitDx=0;exitDy=0;" parent="1" source="X8o6eKV5fm68J-Vxxh91-19" target="X8o6eKV5fm68J-Vxxh91-22" edge="1">
          <mxGeometry relative="1" as="geometry">
            <mxPoint x="-199.5" y="550" as="sourcePoint" />
          </mxGeometry>
        </mxCell>
        <mxCell id="X8o6eKV5fm68J-Vxxh91-21" value="HTTPS 443/tcp&lt;br&gt;Command&lt;br&gt;execution" style="edgeLabel;html=1;align=center;verticalAlign=middle;resizable=0;points=[];" parent="X8o6eKV5fm68J-Vxxh91-20" vertex="1" connectable="0">
          <mxGeometry x="0.0222" y="-1" relative="1" as="geometry">
            <mxPoint as="offset" />
          </mxGeometry>
        </mxCell>
        <mxCell id="X8o6eKV5fm68J-Vxxh91-22" value="remote&lt;br&gt;host device" style="rounded=1;whiteSpace=wrap;html=1;fillColor=#f5f5f5;fontColor=#333333;strokeColor=#666666;" parent="1" vertex="1">
          <mxGeometry x="127.5" y="585" width="120" height="60" as="geometry" />
        </mxCell>
        <mxCell id="X8o6eKV5fm68J-Vxxh91-23" value="collector functions" style="swimlane;whiteSpace=wrap;html=1;" parent="1" vertex="1">
          <mxGeometry x="-359.5" y="335" width="210" height="395" as="geometry" />
        </mxCell>
        <mxCell id="1MJjSpkdwELJ1RgtdfNB-1" value="&lt;h1 style=&quot;border-color: var(--border-color); text-align: left;&quot;&gt;&lt;span style=&quot;font-size: 12px;&quot;&gt;Influxdb&lt;/span&gt;&lt;/h1&gt;" style="swimlane;whiteSpace=wrap;html=1;" parent="1" vertex="1">
          <mxGeometry x="-659.5" y="398" width="200" height="210" as="geometry">
            <mxRectangle x="80" y="200" width="200" height="70" as="alternateBounds" />
          </mxGeometry>
        </mxCell>
        <mxCell id="Wyv3X9-IaPAktmPhBZ03-1" value="Graphite Web" style="rounded=0;whiteSpace=wrap;html=1;" parent="1" vertex="1">
          <mxGeometry x="-617.5" y="448" width="120" height="120" as="geometry" />
        </mxCell>
        <mxCell id="Wyv3X9-IaPAktmPhBZ03-2" value="Influxdb" style="rounded=0;whiteSpace=wrap;html=1;" parent="1" vertex="1">
          <mxGeometry x="-607.5" y="458" width="120" height="120" as="geometry" />
        </mxCell>
        <mxCell id="V6u_rIq5lhNTx7rVdewx-1" value="config file&lt;br&gt;yaml" style="shape=document;whiteSpace=wrap;html=1;boundedLbl=1;fillColor=#fff2cc;strokeColor=#d6b656;" parent="1" vertex="1">
          <mxGeometry x="-100.5" y="178" width="101" height="100" as="geometry" />
        </mxCell>
        <mxCell id="V6u_rIq5lhNTx7rVdewx-4" value="" style="endArrow=none;startArrow=classic;html=1;rounded=0;entryX=0;entryY=0.5;entryDx=0;entryDy=0;exitX=1.033;exitY=0.578;exitDx=0;exitDy=0;exitPerimeter=0;endFill=0;" parent="1" source="nDJEfwzJZ0UT30trl8e0-1" target="V6u_rIq5lhNTx7rVdewx-1" edge="1">
          <mxGeometry width="50" height="50" relative="1" as="geometry">
            <mxPoint x="-209.5" y="210" as="sourcePoint" />
            <mxPoint x="-169.5" y="160" as="targetPoint" />
          </mxGeometry>
        </mxCell>
        <mxCell id="V6u_rIq5lhNTx7rVdewx-5" value="load/&lt;br&gt;reload &lt;br&gt;when changed" style="edgeLabel;html=1;align=center;verticalAlign=middle;resizable=0;points=[];" parent="V6u_rIq5lhNTx7rVdewx-4" vertex="1" connectable="0">
          <mxGeometry x="-0.1928" y="2" relative="1" as="geometry">
            <mxPoint x="7" y="-48" as="offset" />
          </mxGeometry>
        </mxCell>
        <mxCell id="cypA32HjYYS9YyYGD42s-24" style="edgeStyle=orthogonalEdgeStyle;rounded=0;orthogonalLoop=1;jettySize=auto;html=1;entryX=0.5;entryY=0;entryDx=0;entryDy=0;" edge="1" parent="1" source="t6crJZCH1_NV1R15Pneb-1" target="1MJjSpkdwELJ1RgtdfNB-1">
          <mxGeometry relative="1" as="geometry" />
        </mxCell>
        <mxCell id="t6crJZCH1_NV1R15Pneb-1" value="&lt;h1 style=&quot;border-color: var(--border-color); text-align: left;&quot;&gt;&lt;span style=&quot;font-size: 12px;&quot;&gt;Grafana&amp;nbsp;&lt;/span&gt;&lt;/h1&gt;" style="swimlane;whiteSpace=wrap;html=1;" parent="1" vertex="1">
          <mxGeometry x="-659.5" y="110" width="200" height="210" as="geometry">
            <mxRectangle x="80" y="200" width="200" height="70" as="alternateBounds" />
          </mxGeometry>
        </mxCell>
        <mxCell id="-yrWKuXQ7gtv-LRf3TSO-4" value="Grafana" style="rounded=0;whiteSpace=wrap;html=1;" parent="t6crJZCH1_NV1R15Pneb-1" vertex="1">
          <mxGeometry x="38" y="45" width="120" height="120" as="geometry" />
        </mxCell>
        <mxCell id="f0EEtuUj8fcCQt5HUh5t-1" style="edgeStyle=orthogonalEdgeStyle;rounded=0;orthogonalLoop=1;jettySize=auto;html=1;" parent="1" source="-yrWKuXQ7gtv-LRf3TSO-3" edge="1">
          <mxGeometry relative="1" as="geometry">
            <mxPoint x="-659.5" y="190" as="targetPoint" />
          </mxGeometry>
        </mxCell>
        <mxCell id="SLw8ff0jMQPr8c5sQsE6-1" value="HTTP" style="edgeLabel;html=1;align=center;verticalAlign=middle;resizable=0;points=[];" parent="f0EEtuUj8fcCQt5HUh5t-1" vertex="1" connectable="0">
          <mxGeometry x="-0.1069" y="-3" relative="1" as="geometry">
            <mxPoint y="-13" as="offset" />
          </mxGeometry>
        </mxCell>
        <mxCell id="-yrWKuXQ7gtv-LRf3TSO-3" value="User" style="outlineConnect=0;dashed=0;verticalLabelPosition=bottom;verticalAlign=top;align=center;html=1;shape=mxgraph.aws3.user;fillColor=#D2D3D3;gradientColor=none;" parent="1" vertex="1">
          <mxGeometry x="-779.5" y="159" width="45" height="63" as="geometry" />
        </mxCell>
        <mxCell id="cypA32HjYYS9YyYGD42s-26" value="8086 HTTP" style="edgeStyle=orthogonalEdgeStyle;rounded=0;orthogonalLoop=1;jettySize=auto;html=1;entryX=1;entryY=0.5;entryDx=0;entryDy=0;" edge="1" parent="1" source="5J0PUy4bGQ5Gx7d7I28n-1" target="1MJjSpkdwELJ1RgtdfNB-1">
          <mxGeometry relative="1" as="geometry" />
        </mxCell>
        <mxCell id="5J0PUy4bGQ5Gx7d7I28n-1" value="fjcollector" style="swimlane;whiteSpace=wrap;html=1;" parent="1" vertex="1">
          <mxGeometry x="-379.5" y="110" width="400" height="640" as="geometry" />
        </mxCell>
        <mxCell id="taoRWLHK3a_2s9JSugKP-5" value="collector&lt;br&gt;function" style="rounded=0;whiteSpace=wrap;html=1;fillColor=#d5e8d4;strokeColor=#82b366;" parent="5J0PUy4bGQ5Gx7d7I28n-1" vertex="1">
          <mxGeometry x="56" y="540" width="120" height="60" as="geometry" />
        </mxCell>
        <mxCell id="taoRWLHK3a_2s9JSugKP-4" value="" style="edgeStyle=orthogonalEdgeStyle;rounded=0;orthogonalLoop=1;jettySize=auto;html=1;" parent="1" source="taoRWLHK3a_2s9JSugKP-2" target="taoRWLHK3a_2s9JSugKP-3" edge="1">
          <mxGeometry relative="1" as="geometry" />
        </mxCell>
        <mxCell id="taoRWLHK3a_2s9JSugKP-2" value="linux&lt;br&gt;bastion&lt;br&gt;host" style="rounded=1;whiteSpace=wrap;html=1;strokeWidth=3;fillColor=#f5f5f5;fontColor=#333333;strokeColor=#666666;" parent="1" vertex="1">
          <mxGeometry x="127.5" y="655" width="120" height="60" as="geometry" />
        </mxCell>
        <mxCell id="taoRWLHK3a_2s9JSugKP-3" value="remote&lt;br&gt;host device" style="rounded=1;whiteSpace=wrap;html=1;fillColor=#f5f5f5;fontColor=#333333;strokeColor=#666666;" parent="1" vertex="1">
          <mxGeometry x="300.5" y="655" width="120" height="60" as="geometry" />
        </mxCell>
        <mxCell id="taoRWLHK3a_2s9JSugKP-6" style="edgeStyle=orthogonalEdgeStyle;rounded=0;orthogonalLoop=1;jettySize=auto;html=1;entryX=0;entryY=0.5;entryDx=0;entryDy=0;" parent="1" source="taoRWLHK3a_2s9JSugKP-5" target="taoRWLHK3a_2s9JSugKP-2" edge="1">
          <mxGeometry relative="1" as="geometry" />
        </mxCell>
        <mxCell id="taoRWLHK3a_2s9JSugKP-7" value="through SSH tunnel" style="edgeLabel;html=1;align=center;verticalAlign=middle;resizable=0;points=[];" parent="taoRWLHK3a_2s9JSugKP-6" vertex="1" connectable="0">
          <mxGeometry x="0.039" relative="1" as="geometry">
            <mxPoint as="offset" />
          </mxGeometry>
        </mxCell>
        <mxCell id="--ExdW6IyTlw96Q4GV5x-2" value="" style="shape=cylinder3;whiteSpace=wrap;html=1;boundedLbl=1;backgroundOutline=1;size=15;" parent="1" vertex="1">
          <mxGeometry x="-567.5" y="540" width="40" height="60" as="geometry" />
        </mxCell>
        <mxCell id="--ExdW6IyTlw96Q4GV5x-4" value="" style="html=1;whiteSpace=wrap;shape=isoCube2;backgroundOutline=1;isoAngle=19.700854700854634;fillColor=#dae8fc;strokeColor=#6c8ebf;gradientColor=#7ea6e0;" parent="1" vertex="1">
          <mxGeometry x="-489.5" y="291" width="70" height="80" as="geometry" />
        </mxCell>
        <mxCell id="--ExdW6IyTlw96Q4GV5x-5" value="" style="html=1;whiteSpace=wrap;shape=isoCube2;backgroundOutline=1;isoAngle=19.700854700854634;fillColor=#dae8fc;strokeColor=#6c8ebf;gradientColor=#7ea6e0;" parent="1" vertex="1">
          <mxGeometry x="-497.5" y="580" width="70" height="80" as="geometry" />
        </mxCell>
        <mxCell id="--ExdW6IyTlw96Q4GV5x-6" value="" style="html=1;whiteSpace=wrap;shape=isoCube2;backgroundOutline=1;isoAngle=19.700854700854634;fillColor=#dae8fc;strokeColor=#6c8ebf;gradientColor=#7ea6e0;" parent="1" vertex="1">
          <mxGeometry x="-409.5" y="700" width="70" height="80" as="geometry" />
        </mxCell>
        <mxCell id="--ExdW6IyTlw96Q4GV5x-8" value="" style="rounded=0;whiteSpace=wrap;html=1;fillColor=none;" parent="1" vertex="1">
          <mxGeometry x="-1119.5" y="50" width="310" height="97.5" as="geometry" />
        </mxCell>
        <mxCell id="--ExdW6IyTlw96Q4GV5x-7" value="" style="html=1;whiteSpace=wrap;shape=isoCube2;backgroundOutline=1;isoAngle=19.700854700854634;fillColor=#dae8fc;strokeColor=#6c8ebf;gradientColor=#7ea6e0;" parent="1" vertex="1">
          <mxGeometry x="-1102.5" y="57.5" width="70" height="80" as="geometry" />
        </mxCell>
        <mxCell id="cypA32HjYYS9YyYGD42s-2" value="Docker compose will be used to run the 3 containers" style="whiteSpace=wrap;html=1;labelBorderColor=none;strokeColor=none;fillColor=none;" vertex="1" parent="1">
          <mxGeometry x="-1009.5" y="67.5" width="200" height="60" as="geometry" />
        </mxCell>
        <mxCell id="cypA32HjYYS9YyYGD42s-3" value="&lt;h1 style=&quot;border-color: var(--border-color); text-align: left;&quot;&gt;&lt;span style=&quot;font-size: 12px;&quot;&gt;Acessing Metrics Agentless&lt;/span&gt;&lt;/h1&gt;" style="swimlane;whiteSpace=wrap;html=1;startSize=23;" vertex="1" parent="1">
          <mxGeometry x="100.5" y="335" width="340" height="390" as="geometry">
            <mxRectangle x="80" y="200" width="200" height="70" as="alternateBounds" />
          </mxGeometry>
        </mxCell>
        <mxCell id="cypA32HjYYS9YyYGD42s-8" value="&lt;h1 style=&quot;border-color: var(--border-color); text-align: left;&quot;&gt;&lt;span style=&quot;font-size: 12px;&quot;&gt;fjcollector&lt;/span&gt;&lt;/h1&gt;" style="swimlane;whiteSpace=wrap;html=1;startSize=23;" vertex="1" parent="1">
          <mxGeometry x="-1120" y="190" width="310" height="120" as="geometry">
            <mxRectangle x="80" y="200" width="200" height="70" as="alternateBounds" />
          </mxGeometry>
        </mxCell>
        <mxCell id="cypA32HjYYS9YyYGD42s-9" value="" style="html=1;whiteSpace=wrap;shape=isoCube2;backgroundOutline=1;isoAngle=19.700854700854634;fillColor=#dae8fc;strokeColor=#6c8ebf;gradientColor=#7ea6e0;" vertex="1" parent="cypA32HjYYS9YyYGD42s-8">
          <mxGeometry x="10.5" y="32" width="70" height="80" as="geometry" />
        </mxCell>
        <mxCell id="cypA32HjYYS9YyYGD42s-10" value="&lt;font face=&quot;Helvetica&quot;&gt;Reads config file and collects metrics&lt;/font&gt;" style="whiteSpace=wrap;html=1;fillColor=none;strokeColor=none;" vertex="1" parent="cypA32HjYYS9YyYGD42s-8">
          <mxGeometry x="100" y="30" width="210" height="80" as="geometry" />
        </mxCell>
        <mxCell id="cypA32HjYYS9YyYGD42s-11" value="&lt;h1 style=&quot;border-color: var(--border-color); text-align: left;&quot;&gt;&lt;span style=&quot;font-size: 12px;&quot;&gt;grafana&lt;/span&gt;&lt;/h1&gt;" style="swimlane;whiteSpace=wrap;html=1;startSize=23;" vertex="1" parent="1">
          <mxGeometry x="-1119.5" y="318" width="310" height="200" as="geometry">
            <mxRectangle x="80" y="200" width="200" height="70" as="alternateBounds" />
          </mxGeometry>
        </mxCell>
        <mxCell id="cypA32HjYYS9YyYGD42s-12" value="" style="html=1;whiteSpace=wrap;shape=isoCube2;backgroundOutline=1;isoAngle=19.700854700854634;fillColor=#dae8fc;strokeColor=#6c8ebf;gradientColor=#7ea6e0;" vertex="1" parent="cypA32HjYYS9YyYGD42s-11">
          <mxGeometry x="10.5" y="32" width="70" height="80" as="geometry" />
        </mxCell>
        <mxCell id="cypA32HjYYS9YyYGD42s-13" value="&lt;span style=&quot;color: rgb(57, 63, 73); font-size: 14px; letter-spacing: 0.28px; background-color: rgb(255, 255, 255);&quot;&gt;&lt;font face=&quot;Helvetica&quot;&gt;Grafana Enterprise is the recommended distribution of Grafana. It works great without a license, and can easily be upgraded to enable Enterprise features like data source permissions, reporting, and extended auth options.&lt;/font&gt;&lt;/span&gt;" style="whiteSpace=wrap;html=1;fillColor=none;strokeColor=none;align=left;" vertex="1" parent="cypA32HjYYS9YyYGD42s-11">
          <mxGeometry x="90" y="30" width="220" height="170" as="geometry" />
        </mxCell>
        <mxCell id="cypA32HjYYS9YyYGD42s-14" value="&lt;h1 style=&quot;border-color: var(--border-color); text-align: left;&quot;&gt;&lt;span style=&quot;font-size: 12px;&quot;&gt;influxdb&lt;/span&gt;&lt;/h1&gt;" style="swimlane;whiteSpace=wrap;html=1;startSize=23;" vertex="1" parent="1">
          <mxGeometry x="-1119.5" y="530" width="310" height="200" as="geometry">
            <mxRectangle x="80" y="200" width="200" height="70" as="alternateBounds" />
          </mxGeometry>
        </mxCell>
        <mxCell id="cypA32HjYYS9YyYGD42s-15" value="" style="html=1;whiteSpace=wrap;shape=isoCube2;backgroundOutline=1;isoAngle=19.700854700854634;fillColor=#dae8fc;strokeColor=#6c8ebf;gradientColor=#7ea6e0;" vertex="1" parent="cypA32HjYYS9YyYGD42s-14">
          <mxGeometry x="10.5" y="32" width="70" height="80" as="geometry" />
        </mxCell>
        <mxCell id="cypA32HjYYS9YyYGD42s-16" value="&lt;span style=&quot;color: rgb(57, 63, 73); font-size: 14px; letter-spacing: 0.28px; background-color: rgb(255, 255, 255);&quot;&gt;&lt;font face=&quot;Helvetica&quot;&gt;&amp;nbsp;Using InfluxDB, you can collect, store, and process large amounts of timestamped data, including metrics and events for use cases such as DevOps monitoring, application metrics, IoT sensors, and event monitoring.&lt;/font&gt;&lt;/span&gt;" style="whiteSpace=wrap;html=1;fillColor=none;strokeColor=none;align=left;" vertex="1" parent="cypA32HjYYS9YyYGD42s-14">
          <mxGeometry x="90" y="30" width="220" height="170" as="geometry" />
        </mxCell>
        <mxCell id="cypA32HjYYS9YyYGD42s-17" value="&lt;h1 style=&quot;border-color: var(--border-color); text-align: left;&quot;&gt;&lt;span style=&quot;font-size: 12px;&quot;&gt;Acessing Metrics with Agent&lt;/span&gt;&lt;/h1&gt;" style="swimlane;whiteSpace=wrap;html=1;startSize=23;" vertex="1" parent="1">
          <mxGeometry x="100.5" y="735" width="340" height="200" as="geometry">
            <mxRectangle x="80" y="200" width="200" height="70" as="alternateBounds" />
          </mxGeometry>
        </mxCell>
        <mxCell id="cypA32HjYYS9YyYGD42s-18" value="Telegraf" style="sketch=0;outlineConnect=0;fontColor=#232F3E;gradientColor=none;strokeColor=#232F3E;fillColor=#ffffff;dashed=0;verticalLabelPosition=bottom;verticalAlign=top;align=center;html=1;fontSize=12;fontStyle=0;aspect=fixed;shape=mxgraph.aws4.resourceIcon;resIcon=mxgraph.aws4.agent;" vertex="1" parent="cypA32HjYYS9YyYGD42s-17">
          <mxGeometry x="27" y="45" width="90" height="90" as="geometry" />
        </mxCell>
        <mxCell id="cypA32HjYYS9YyYGD42s-23" value="&lt;span style=&quot;color: rgb(23, 23, 23); font-family: proxima-nova, proxima-nova, sans-serif; font-size: 16px; font-style: normal; font-variant-ligatures: normal; font-variant-caps: normal; font-weight: 400; letter-spacing: normal; orphans: 2; text-indent: 0px; text-transform: none; widows: 2; word-spacing: 0px; -webkit-text-stroke-width: 0px; white-space: normal; background-color: rgb(255, 255, 255); text-decoration-thickness: initial; text-decoration-style: initial; text-decoration-color: initial; float: none; display: inline !important;&quot;&gt;Telegraf is an open source plugin-driven server agent for collecting and reporting metrics.&lt;/span&gt;" style="text;whiteSpace=wrap;html=1;align=left;" vertex="1" parent="cypA32HjYYS9YyYGD42s-17">
          <mxGeometry x="120" y="35" width="220" height="155" as="geometry" />
        </mxCell>
        <mxCell id="cypA32HjYYS9YyYGD42s-19" value="8086 HTTP" style="edgeStyle=orthogonalEdgeStyle;rounded=0;orthogonalLoop=1;jettySize=auto;html=1;entryX=0.5;entryY=1;entryDx=0;entryDy=0;exitX=0;exitY=0.5;exitDx=0;exitDy=0;" edge="1" parent="1" source="cypA32HjYYS9YyYGD42s-17" target="1MJjSpkdwELJ1RgtdfNB-1">
          <mxGeometry relative="1" as="geometry" />
        </mxCell>
        <mxCell id="cypA32HjYYS9YyYGD42s-27" value="&lt;b style=&quot;font-size: 16px;&quot;&gt;Updated:&lt;/b&gt;&lt;div style=&quot;font-size: 16px;&quot;&gt;&lt;div style=&quot;font-size: 16px;&quot;&gt;25-01-2024&lt;/div&gt;&lt;div style=&quot;font-size: 16px;&quot;&gt;&lt;br&gt;&lt;/div&gt;&lt;div style=&quot;font-size: 16px;&quot;&gt;&lt;b&gt;Features:&lt;/b&gt;&lt;br&gt;&lt;/div&gt;&lt;div style=&quot;font-size: 16px;&quot;&gt;Fujitsu ETERNUS CS8000&lt;/div&gt;&lt;div style=&quot;font-size: 16px;&quot;&gt;Linux&lt;/div&gt;&lt;div style=&quot;font-size: 16px;&quot;&gt;All features here:&amp;nbsp;https://github.com/ajcpereira/fjcollector/blob/main/functions/README.md&lt;/div&gt;&lt;div style=&quot;font-size: 16px;&quot;&gt;&lt;br&gt;&lt;/div&gt;&lt;div style=&quot;font-size: 16px;&quot;&gt;&lt;b&gt;Roadmap:&lt;/b&gt;&lt;/div&gt;&lt;div style=&quot;font-size: 16px;&quot;&gt;Servers temperature and power through redfish&lt;/div&gt;&lt;/div&gt;" style="rounded=1;whiteSpace=wrap;html=1;align=left;verticalAlign=middle;fontSize=16;strokeColor=none;fillColor=none;" vertex="1" parent="1">
          <mxGeometry x="-1120" y="850" width="720" height="220" as="geometry" />
        </mxCell>
      </root>
    </mxGraphModel>
  </diagram>
</mxfile>
